<svg width="65" height="20" viewBox="0 0 65 20" fill="#ffffff" xmlns="http://www.w3.org/2000/svg">
<path d="M37.6732 0.399902L38.1909 0.439725L35.9608 6.29371C37.1874 6.70256 38.1697 7.37955 38.9077 8.32468C39.4546 8.99902 39.8794 9.79548 40.1821 10.7141L40.421 11.6698V13.7406C40.0865 15.5831 39.3299 17.0034 38.1511 18.0017C37.5936 18.5326 36.9299 18.9574 36.16 19.276L34.8856 19.6742L33.5316 19.7539L33.452 19.8335L33.3723 19.7539L32.0184 19.6742L30.744 19.276C29.6237 18.8034 28.7077 18.1264 27.9962 17.245C27.444 16.6026 27.0192 15.8326 26.7219 14.9353L26.4033 12.8247H29.8679L29.9077 13.1034L30.2263 14.2981C30.5077 14.8185 30.8662 15.2565 31.3016 15.6123L32.6555 16.2495L33.5316 16.3291C33.6272 16.1857 33.8396 16.1592 34.1688 16.2495L35.0449 15.9309L36.1998 14.9353L36.8369 13.661L36.9166 12.3866L36.598 11.2716C36.375 10.8096 36.0697 10.4247 35.6821 10.1167C35.2626 9.73973 34.7316 9.47424 34.0892 9.32026H31.0228L33.0139 4.10344L32.8945 3.98397H27.3591V0.479548H37.5936L37.6732 0.399902Z" fill="#ffffff" stroke="#ffffff" stroke-width="0.079646"/>
<path d="M0.199219 5.73633H3.70364V14.139C3.89479 14.877 4.2532 15.4478 4.77886 15.8514C5.19302 16.154 5.75055 16.3133 6.45143 16.3292L7.24789 16.17L8.24347 15.493L8.80099 14.6169L8.96028 13.9797V5.73633H12.4647V14.2983L12.2258 15.493L11.7479 16.608C11.3444 17.3461 10.8267 17.97 10.1948 18.4797C9.6001 18.9735 8.88329 19.3452 8.04435 19.5947L6.92931 19.8337H5.73462L4.85851 19.6744L3.26559 19.0372C2.59125 18.6549 2.02046 18.1638 1.5532 17.5638L0.597449 15.9708L0.199219 14.3779V5.73633Z" fill="#ffffff" stroke="#ffffff" stroke-width="0.079646"/>
<path d="M43.0488 5.73633H46.5134L46.5533 5.77615V6.65226L46.6727 6.61243L48.0267 5.97527L48.6639 5.81597L49.9382 5.73633L50.0179 5.81597L51.0533 5.89562L51.7701 6.13456C52.694 6.51155 53.4639 7.04252 54.0798 7.72748C54.6533 7.02659 55.3966 6.49562 56.3099 6.13456L57.7435 5.73633H59.2568C60.6692 5.99651 61.771 6.5673 62.5621 7.44872C63.3055 8.19208 63.8099 9.17438 64.0754 10.3956V11.3514L64.155 11.431V19.754H60.571V11.2717C60.4117 10.6346 60.1063 10.1434 59.655 9.79827L58.54 9.24075H57.4249C56.8302 9.38943 56.3656 9.66819 56.0311 10.077C55.7285 10.385 55.5161 10.7832 55.394 11.2717V19.754H51.8099V11.3514L51.6506 10.7939L51.0533 9.95757C50.6019 9.45314 49.8851 9.2142 48.9028 9.24075C48.1966 9.35757 47.6524 9.63633 47.2701 10.077C46.9621 10.3797 46.7497 10.7779 46.6329 11.2717V12.2275L46.5533 12.3071V19.8337H43.0887L43.0488 19.7939V5.73633Z" fill="#ffffff" stroke="#ffffff" stroke-width="0.079646"/>
<path d="M20.5487 5.81592H21.9823C22.0513 5.93804 22.2106 5.96459 22.4602 5.89556L24.2522 6.45309L24.2124 10.515C23.5327 9.6814 22.4177 9.28317 20.8672 9.32034L19.7522 9.63893C19.2212 9.90441 18.7832 10.2628 18.438 10.7141C18.1354 11.0752 17.923 11.5265 17.8009 12.0681L17.7212 12.9442C17.8699 13.0398 17.8964 13.2522 17.8009 13.5814L18.1195 14.4575C18.3796 14.9672 18.738 15.3787 19.1947 15.692L20.3894 16.2495L21.7433 16.3292L22.938 16.0106C23.4584 15.8141 23.8832 15.5221 24.2124 15.1345L24.2522 19.077L23.9734 19.2761L22.7787 19.6743L20.9469 19.8336L19.115 19.515L17.6814 18.8779C16.9221 18.4159 16.2717 17.8451 15.7301 17.1655C15.2203 16.5336 14.8221 15.7903 14.5354 14.9354L14.2964 13.9L14.2168 12.4664L14.2964 12.3867V11.6699L14.4557 10.9531L14.9336 9.67875C15.3637 8.80795 15.9345 8.07786 16.646 7.48848C17.1451 7.03185 17.7292 6.66017 18.3982 6.37344L19.2743 6.05486L20.5487 5.81592Z" fill="#ffffff" stroke="#ffffff" stroke-width="0.079646"/>
</svg>
